<?xml version="1.0" encoding="UTF-8" standalone="no"?>
<svg
   xmlns:dc="http://purl.org/dc/elements/1.1/"
   xmlns:cc="http://creativecommons.org/ns#"
   xmlns:rdf="http://www.w3.org/1999/02/22-rdf-syntax-ns#"
   xmlns:svg="http://www.w3.org/2000/svg"
   xmlns="http://www.w3.org/2000/svg"
   xmlns:sodipodi="http://sodipodi.sourceforge.net/DTD/sodipodi-0.dtd"
   xmlns:inkscape="http://www.inkscape.org/namespaces/inkscape"
   id="Layer_1"
   data-name="Layer 1"
   viewBox="0 0 512 512"
   version="1.1"
   sodipodi:docname="icon.svg"
   inkscape:version="0.92.3 (2405546, 2018-03-11)">
  <metadata
     id="metadata13">
    <rdf:RDF>
      <cc:Work
         rdf:about="">
        <dc:format>image/svg+xml</dc:format>
        <dc:type
           rdf:resource="http://purl.org/dc/dcmitype/StillImage" />
      </cc:Work>
    </rdf:RDF>
  </metadata>
  <sodipodi:namedview
     pagecolor="#ffffff"
     bordercolor="#666666"
     borderopacity="1"
     objecttolerance="10"
     gridtolerance="10"
     guidetolerance="10"
     inkscape:pageopacity="0"
     inkscape:pageshadow="2"
     inkscape:window-width="1920"
     inkscape:window-height="1001"
     id="namedview11"
     showgrid="false"
     inkscape:zoom="0.4609375"
     inkscape:cx="256"
     inkscape:cy="256"
     inkscape:window-x="-9"
     inkscape:window-y="-9"
     inkscape:window-maximized="1"
     inkscape:current-layer="Layer_1" />
  <defs
     id="defs4">
    <style
       id="style2">.cls-1{fill:#141f38;}</style>
  </defs>
  <title
     id="title6">checklist-glyph</title>
  <path
     class="cls-1"
     d="M396.8,38.4H339.15A32,32,0,0,0,313.6,25.6H292.21a38.4,38.4,0,0,0-72.41,0H198.4a32,32,0,0,0-25.55,12.8H115.2a64.19,64.19,0,0,0-64,64V448a64.19,64.19,0,0,0,64,64H396.8a64.19,64.19,0,0,0,64-64V102.4A64.19,64.19,0,0,0,396.8,38.4ZM256,25.6a12.8,12.8,0,1,1-12.8,12.8A12.81,12.81,0,0,1,256,25.6ZM219.79,51.2a38.4,38.4,0,0,0,72.41,0H313.6a6.49,6.49,0,0,1,6.4,6.4V96a6.49,6.49,0,0,1-6.4,6.4H198.4A6.49,6.49,0,0,1,192,96V57.6a6.49,6.49,0,0,1,6.4-6.4Zm-4.34,327.1-25.6,38.4A12.8,12.8,0,0,1,173.47,421l-25.6-12.8a12.8,12.8,0,0,1,11.45-22.9l15.49,7.75,19.33-29a12.8,12.8,0,1,1,21.3,14.2Zm0-89.6-25.6,38.4a12.8,12.8,0,0,1-16.37,4.35l-25.6-12.8a12.8,12.8,0,0,1,11.45-22.9l15.49,7.75,19.33-29a12.8,12.8,0,1,1,21.3,14.2Zm0-89.6-25.6,38.4a12.8,12.8,0,0,1-16.37,4.35L147.88,229a12.8,12.8,0,0,1,11.45-22.9l15.49,7.75,19.33-29a12.8,12.8,0,1,1,21.3,14.2Zm143,210.5H256a12.8,12.8,0,1,1,0-25.6H358.4a12.8,12.8,0,1,1,0,25.6Zm0-89.6H256a12.8,12.8,0,0,1,0-25.6H358.4a12.8,12.8,0,0,1,0,25.6Zm0-89.6H256a12.8,12.8,0,0,1,0-25.6H358.4a12.8,12.8,0,0,1,0,25.6Z"
     id="path8"
     inkscape:export-xdpi="79"
     inkscape:export-ydpi="79" />
</svg>
